<svg width="42" height="42" xmlns="http://www.w3.org/2000/svg"><path d="M20.979 0C9.387 0 0 9.408 0 21s9.387 21 20.979 21C32.592 42 42 32.592 42 21S32.592 0 20.979 0zm14.553 12.6h-6.195c-.672-2.625-1.638-5.145-2.898-7.476a16.862 16.862 0 0 1 9.093 7.476zM21 4.284a29.582 29.582 0 0 1 4.011 8.316h-8.022A29.582 29.582 0 0 1 21 4.284zM4.746 25.2C4.41 23.856 4.2 22.449 4.2 21c0-1.449.21-2.856.546-4.2h7.098c-.168 1.386-.294 2.772-.294 4.2 0 1.428.126 2.814.294 4.2H4.746zm1.722 4.2h6.195c.672 2.625 1.638 5.145 2.898 7.476A16.772 16.772 0 0 1 6.468 29.4zm6.195-16.8H6.468a16.772 16.772 0 0 1 9.093-7.476c-1.26 2.331-2.226 4.851-2.898 7.476zM21 37.716a29.582 29.582 0 0 1-4.011-8.316h8.022A29.582 29.582 0 0 1 21 37.716zM25.914 25.2h-9.828c-.189-1.386-.336-2.772-.336-4.2 0-1.428.147-2.835.336-4.2h9.828c.189 1.365.336 2.772.336 4.2 0 1.428-.147 2.814-.336 4.2zm.525 11.676c1.26-2.331 2.226-4.851 2.898-7.476h6.195a16.862 16.862 0 0 1-9.093 7.476zM30.156 25.2c.168-1.386.294-2.772.294-4.2 0-1.428-.126-2.814-.294-4.2h7.098c.336 1.344.546 2.751.546 4.2 0 1.449-.21 2.856-.546 4.2h-7.098z" fill="#E54725"/></svg>