<svg width="114" height="72" viewBox="0 0 114 72" fill="none" xmlns="http://www.w3.org/2000/svg">
<path fill-rule="evenodd" clip-rule="evenodd" d="M112.636 35.1402L93.7231 1.63103C93.1236 0.634225 91.8681 0.263976 90.8273 0.782319L82.1399 5.77209C81.0653 6.39296 80.692 7.77142 81.3028 8.85937L83.0391 12.391C81.8118 13.2397 80.3187 13.6042 78.8425 13.4106C77.4682 13.2055 76.1108 12.8922 74.7873 12.4764C68.4188 10.7562 57.7918 7.83981 47.3625 12.4764C45.3717 13.3137 43.5223 14.4644 41.8877 15.8883C40.9319 15.8883 38.9919 15.5408 36.9954 15.2446V15.2503C34.9423 14.4187 33.0759 13.1655 31.5262 11.5764L32.7423 9.41756C33.3531 8.32962 32.9741 6.9455 31.8995 6.3246L23.2121 1.33483V1.34051C22.6918 1.03862 22.0753 0.964578 21.504 1.13546C20.9271 1.27787 20.4294 1.65951 20.141 2.18354L1.28926 35.7219C0.995162 36.2459 0.921624 36.8668 1.08566 37.4421C1.23271 38.0231 1.60599 38.5243 2.132 38.8148L10.8194 43.8046V43.7989C11.1531 43.9926 11.5321 44.0951 11.9166 44.0894C12.1203 44.1179 12.3239 44.1179 12.5275 44.0894C13.1044 43.947 13.5964 43.5654 13.8849 43.0414L15.9437 39.4243C17.6461 41.6914 19.4955 43.8444 21.4751 45.8723L21.0113 46.5444C20.3326 47.5185 19.9706 48.6747 19.9706 49.8652C19.9706 51.7392 20.8643 53.4936 22.3744 54.5929C23.3246 55.2992 24.484 55.6808 25.6718 55.6694H25.9036C25.8188 56.2505 25.8188 56.8371 25.9036 57.4181C26.1695 58.9276 27.0122 60.2661 28.2508 61.1547C29.2067 61.8553 30.3661 62.237 31.5538 62.2313C32.142 62.2313 32.7246 62.1458 33.2901 61.9692C33.6182 63.6495 34.6588 65.102 36.1408 65.9395C37.6282 66.7711 39.3985 66.9135 40.9935 66.3154C41.3216 67.6711 42.1247 68.8559 43.2502 69.6704C44.2117 70.3653 45.3711 70.7299 46.5532 70.7185H47.5373C49.0362 70.4792 50.3709 69.6362 51.2419 68.383V68.2065V68.2121C54.5336 69.9494 58.159 70.9463 61.8692 71.1285C63.1644 71.1114 64.4482 70.8779 65.6643 70.4279C67.7288 69.7899 69.4651 68.3659 70.5 66.4577H71.4559C73.0791 66.4691 74.6627 65.9849 76.0032 65.0622C77.5529 63.9457 78.6444 62.2939 79.0743 60.4256C80.8786 60.2319 82.5526 59.3661 83.7631 58.0047C84.668 56.968 85.3468 55.7604 85.7596 54.4447C88.0332 54.2396 90.1202 53.1118 91.5512 51.3233C92.4618 49.922 92.7616 48.2019 92.3939 46.5728C92.2469 45.9006 91.9924 45.2627 91.6417 44.676C94.283 43.4171 96.6189 41.583 98.474 39.3103L100.154 42.2266C100.448 42.7507 100.94 43.138 101.517 43.3032C101.715 43.3317 101.919 43.3317 102.122 43.3032C102.507 43.2918 102.886 43.195 103.225 43.0127L111.912 38.0229C112.433 37.7267 112.817 37.2369 112.981 36.6559C113.049 36.1261 112.931 35.585 112.636 35.1407L112.636 35.1402ZM14.5793 35.7212L11.6835 40.6483L4.12718 36.5357L22.4301 4.19312L29.9864 8.53925L14.5793 35.7212ZM28.0176 51.4142C27.0844 52.6275 25.3763 52.9122 24.1094 52.0522C22.8708 51.1237 22.5766 49.3751 23.442 48.0877L24.4827 46.5725L25.8175 44.7042C26.745 43.4397 28.4984 43.1435 29.7823 44.0321C30.9078 44.8637 31.2868 46.3846 30.6815 47.6491L28.0176 51.4142ZM34.2729 57.452L33.894 57.976C33.5433 58.7792 32.8533 59.383 32.0106 59.6165C31.1678 59.85 30.2686 59.6849 29.5559 59.1722C28.849 58.6596 28.4021 57.8507 28.3512 56.9736C28.3003 56.0964 28.6453 55.242 29.2901 54.6495L30.3365 53.2198L32.7119 49.8648L35.8396 45.4332H35.834C36.2356 44.7725 36.886 44.294 37.6382 44.1117C38.3848 43.9351 39.1766 44.0605 39.8327 44.4706C40.4605 44.9035 40.879 45.5813 40.9921 46.3388C41.1052 47.085 40.9299 47.8483 40.5001 48.4634L39.4594 49.95L34.2729 57.452ZM41.948 61.4791L41.2523 62.4417V62.436C40.896 63.2449 40.1947 63.8486 39.3463 64.0765C38.4979 64.2986 37.5874 64.1277 36.8804 63.598C36.1734 63.074 35.7435 62.2537 35.7096 61.3709C35.6757 60.4823 36.0433 59.6336 36.705 59.0527L41.8858 51.7047C42.6097 50.8731 43.7352 50.5257 44.7929 50.8048C45.8562 51.0782 46.6707 51.9383 46.8968 53.0148C47.0439 53.761 46.8686 54.5414 46.4048 55.1451L44.6685 57.6228L41.948 61.4791ZM51.6762 62.6183L49.8493 65.1531L49.6174 65.5005L48.8935 66.4916H48.8992C47.9603 67.46 46.484 67.6536 45.3304 66.9587C44.1822 66.2638 43.6563 64.8626 44.0578 63.5753L44.2897 63.1936L47.0384 59.3146H47.044C47.9829 58.107 49.6909 57.8393 50.9522 58.7051C52.2078 59.6392 52.5019 61.4051 51.6196 62.698L51.6762 62.6183ZM89.0335 49.7851V49.7794C87.9249 50.93 86.4205 51.6078 84.8312 51.6762L67.717 40.8879L67.7227 40.8822C67.0497 40.4493 66.1561 40.643 65.7205 41.3208C65.5113 41.6455 65.4377 42.0442 65.5282 42.4258C65.6131 42.8075 65.8506 43.1322 66.1843 43.3315L82.8642 53.8863V53.892C82.5701 54.735 82.1063 55.5097 81.5067 56.1647C80.6244 57.1046 79.3971 57.64 78.1189 57.6514L63.0014 49.1358C62.3001 48.7428 61.412 48.9991 61.0162 49.7054C60.6259 50.4118 60.8804 51.3061 61.5818 51.7048L76.0608 59.8387C75.8119 61.0178 75.1276 62.0601 74.1491 62.7551C72.8935 63.5867 71.3438 63.843 69.8959 63.4557H69.7206C69.6301 63.3702 69.5339 63.2905 69.4321 63.2221L57.8489 57.3894C57.1476 57.0989 56.3388 57.3951 55.9995 58.0786C55.6545 58.7621 55.892 59.5938 56.5425 59.9868L67.6337 65.6145C66.938 66.6512 65.92 67.4202 64.7379 67.8018C60.7562 68.5252 56.6444 67.7904 53.1547 65.7284L54.0822 64.3044C54.9589 63.0513 55.3152 61.4962 55.0663 59.9869C54.5856 57.3268 52.3572 55.3503 49.6819 55.2022C49.9421 54.3251 49.9986 53.3966 49.8516 52.4909C49.5971 50.9872 48.7656 49.6486 47.5383 48.76C46.4919 48.0081 45.2306 47.6265 43.9467 47.6777C44.0316 47.1195 44.0316 46.5499 43.9467 45.9859C43.5169 43.7132 41.7918 41.9075 39.5521 41.3893C37.3123 40.871 34.9822 41.7367 33.6077 43.5936L33.3475 43.9411V43.9468C32.9516 43.0354 32.3068 42.2608 31.4925 41.7025C28.9135 39.8854 25.3615 40.4778 23.5008 43.041L23.2689 43.3315C21.1932 41.1898 19.2589 38.9056 17.4773 36.5077L30.1012 14.1682H30.1069C31.9563 16.0251 34.2187 17.415 36.7073 18.2237L39.6031 18.6338C38.0929 20.5934 37.0241 22.8603 36.4753 25.2811C35.9494 27.4741 36.5998 29.781 38.1834 31.3759C39.6936 32.9139 41.8768 33.5746 43.9751 33.1246C46.1808 32.6746 48.166 31.4728 49.5913 29.7127L52.4871 25.8336L56.5706 24.7571C67.9898 29.9006 78.544 36.7871 87.8758 45.1717H88.0511C88.1359 45.2743 88.2321 45.3597 88.3395 45.4338C88.9277 45.8723 89.335 46.516 89.4707 47.2394C89.6743 48.1109 89.5159 49.028 89.0352 49.7799L89.0335 49.7851ZM89.4124 42.5226L89.4068 42.5169C79.8654 33.9728 69.0507 26.9944 57.3546 21.8397C57.0831 21.7828 56.8059 21.7828 56.5401 21.8397C56.3478 21.8113 56.1555 21.8113 55.9632 21.8397L51.4724 23.0359C50.9917 23.1726 50.5675 23.4574 50.2564 23.8504L47.3606 27.8775C46.3425 29.0965 44.9455 29.9339 43.3958 30.2698C42.2364 30.5148 41.0373 30.1502 40.2116 29.3072C39.3293 28.4072 38.9673 27.1199 39.2557 25.8953C39.8948 23.0644 41.3881 20.5069 43.5372 18.5702C45.0982 17.1804 46.8685 16.0469 48.7802 15.2209C58.2198 11.0514 68.2704 13.7912 74.2662 15.426V15.4203C75.7479 15.8874 77.2694 16.2291 78.8078 16.4456C80.8438 16.662 82.8913 16.1665 84.5994 15.0443L96.8217 36.6839C94.9439 39.3041 92.3649 41.3262 89.3786 42.5166L89.4124 42.5226ZM102.268 40.3637L99.5478 35.5505L86.7768 12.9486L84.0281 8.07854L91.5504 3.64127L109.797 36.0116L102.268 40.3637Z" fill="#FC6F40"/>
<path d="M112.636 35.1402L112.2 35.386L112.268 35.5062L112.388 35.5746L112.636 35.1402ZM93.7231 1.63103L94.1587 1.38518L94.1516 1.37333L93.7231 1.63103ZM90.8273 0.782319L90.6044 0.334756L90.5911 0.341364L90.5783 0.348747L90.8273 0.782319ZM82.1399 5.77209L81.8909 5.33852L81.8898 5.33916L82.1399 5.77209ZM81.3028 8.85937L81.7515 8.63876L81.7455 8.6265L81.7388 8.61458L81.3028 8.85937ZM83.0391 12.391L83.3235 12.8022L83.678 12.5571L83.4878 12.1704L83.0391 12.391ZM78.8425 13.4106L78.7688 13.9052L78.7775 13.9063L78.8425 13.4106ZM74.7873 12.4764L74.9371 11.9994L74.9274 11.9964L74.9176 11.9937L74.7873 12.4764ZM47.3625 12.4764L47.5564 12.9374L47.5657 12.9333L47.3625 12.4764ZM41.8877 15.8883V16.3883H42.075L42.2162 16.2653L41.8877 15.8883ZM36.9954 15.2446L37.0688 14.75L36.4954 14.665L36.4954 15.2446H36.9954ZM36.9954 15.2503L36.8077 15.7137L37.4954 15.9923V15.2503H36.9954ZM31.5262 11.5764L31.0906 11.331L30.9068 11.6574L31.1683 11.9255L31.5262 11.5764ZM32.7423 9.41756L33.1779 9.66295L33.1782 9.66235L32.7423 9.41756ZM31.8995 6.3246L32.1497 5.89167L32.1486 5.89103L31.8995 6.3246ZM23.2121 1.33483L23.4611 0.901255L22.7121 0.471036V1.33483H23.2121ZM23.2121 1.34051L22.9612 1.773L23.7121 2.20865V1.34051L23.2121 1.34051ZM21.504 1.13546L21.6238 1.62089L21.6357 1.61798L21.6473 1.61449L21.504 1.13546ZM20.141 2.18354L20.5768 2.42854L20.579 2.42465L20.141 2.18354ZM1.28926 35.7219L0.853397 35.4769L0.853232 35.4772L1.28926 35.7219ZM1.08566 37.4421L1.57037 37.3194L1.56854 37.3122L1.56649 37.305L1.08566 37.4421ZM2.132 38.8148L2.38106 38.3812L2.37372 38.3772L2.132 38.8148ZM10.8194 43.8046L10.5704 44.2382L11.3194 44.6684V43.8046H10.8194ZM10.8194 43.7989L11.0704 43.3665L10.3194 42.9307V43.7989H10.8194ZM11.9166 44.0894L11.9859 43.5943L11.9478 43.5889L11.9092 43.5895L11.9166 44.0894ZM12.5275 44.0894L12.5967 44.5846L12.6223 44.581L12.6473 44.5749L12.5275 44.0894ZM13.8849 43.0414L13.4503 42.794L13.4469 42.8003L13.8849 43.0414ZM15.9437 39.4243L16.3435 39.1241L15.886 38.5149L15.5091 39.177L15.9437 39.4243ZM21.4751 45.8723L21.8866 46.1563L22.1204 45.8175L21.8329 45.523L21.4751 45.8723ZM21.0113 46.5444L21.4216 46.8303L21.4229 46.8284L21.0113 46.5444ZM22.3744 54.5929L22.6727 54.1916L22.6687 54.1887L22.3744 54.5929ZM25.6718 55.6694V55.1694L25.667 55.1695L25.6718 55.6694ZM25.9036 55.6694L26.3984 55.7417L26.482 55.1694H25.9036V55.6694ZM25.9036 57.4181L25.4089 57.4904L25.41 57.4976L25.4112 57.5048L25.9036 57.4181ZM28.2508 61.1547L28.5464 60.7514L28.5423 60.7485L28.2508 61.1547ZM31.5538 62.2313V61.7313L31.5514 61.7313L31.5538 62.2313ZM33.2901 61.9692L33.7809 61.8734L33.6739 61.3256L33.1411 61.492L33.2901 61.9692ZM36.1408 65.9395L35.8948 66.3748L35.8968 66.3759L36.1408 65.9395ZM40.9935 66.3154L41.4795 66.1978L41.3467 65.649L40.818 65.8472L40.9935 66.3154ZM43.2502 69.6704L42.9571 70.0754L42.9574 70.0756L43.2502 69.6704ZM46.5532 70.7185V70.2184L46.5484 70.2185L46.5532 70.7185ZM47.5373 70.7185V71.2185H47.577L47.6161 71.2122L47.5373 70.7185ZM51.2419 68.383L51.6525 68.6684L51.7419 68.5397V68.383H51.2419ZM51.2419 68.2121H50.7419V68.5136L51.0085 68.6543L51.2419 68.2121ZM61.8692 71.1285L61.8447 71.6279L61.8603 71.6287L61.8758 71.6285L61.8692 71.1285ZM65.6643 70.4279L65.5167 69.9502L65.5037 69.9542L65.4908 69.959L65.6643 70.4279ZM70.5 66.4577V65.9577H70.2024L70.0605 66.2193L70.5 66.4577ZM71.4559 66.4577L71.4594 65.9577H71.4559V66.4577ZM76.0032 65.0622L76.2868 65.4741L76.2954 65.4678L76.0032 65.0622ZM79.0743 60.4256L79.021 59.9284L78.6669 59.9664L78.5871 60.3134L79.0743 60.4256ZM83.7631 58.0047L84.1367 58.3369L84.1397 58.3335L83.7631 58.0047ZM85.7596 54.4447L85.7147 53.9467L85.3824 53.9767L85.2825 54.295L85.7596 54.4447ZM91.5512 51.3233L91.9416 51.6356L91.957 51.6164L91.9704 51.5957L91.5512 51.3233ZM92.3939 46.5728L91.9055 46.6796L91.9062 46.6828L92.3939 46.5728ZM91.6417 44.676L91.4266 44.2246L90.9307 44.4609L91.2125 44.9325L91.6417 44.676ZM98.474 39.3103L98.9073 39.0607L98.5453 38.4323L98.0867 38.9941L98.474 39.3103ZM100.154 42.2266L100.59 41.9819L100.587 41.9771L100.154 42.2266ZM101.517 43.3032L101.379 43.7839L101.412 43.7933L101.446 43.7981L101.517 43.3032ZM102.122 43.3032L102.107 42.8034L102.08 42.8042L102.053 42.808L102.122 43.3032ZM103.225 43.0127L103.462 43.4532L103.468 43.4498L103.474 43.4463L103.225 43.0127ZM111.912 38.0229L111.665 37.5884L111.663 37.5893L111.912 38.0229ZM112.981 36.6559L113.463 36.7917L113.473 36.7561L113.477 36.7194L112.981 36.6559ZM112.636 35.1407L113.053 34.8647L112.988 34.7653L112.884 34.7063L112.636 35.1407ZM14.5793 35.7212L15.0104 35.9746L15.0143 35.9678L14.5793 35.7212ZM11.6835 40.6483L11.4445 41.0874L11.8694 41.3187L12.1146 40.9016L11.6835 40.6483ZM4.12718 36.5357L3.69203 36.2895L3.44166 36.7319L3.88816 36.9749L4.12718 36.5357ZM22.4301 4.19312L22.6794 3.7597L22.2429 3.50866L21.995 3.94687L22.4301 4.19312ZM29.9864 8.53925L30.4214 8.78581L30.6664 8.35356L30.2357 8.10583L29.9864 8.53925ZM28.0176 51.4142L28.4139 51.7191L28.42 51.7112L28.4257 51.703L28.0176 51.4142ZM24.1094 52.0522L23.8095 52.4523L23.8189 52.4593L23.8286 52.4659L24.1094 52.0522ZM23.442 48.0877L23.0298 47.8046L23.027 47.8087L23.442 48.0877ZM24.4827 46.5725L24.0758 46.2817L24.0705 46.2894L24.4827 46.5725ZM25.8175 44.7042L25.4143 44.4085L25.4106 44.4136L25.8175 44.7042ZM29.7823 44.0321L30.0794 43.6299L30.0732 43.6254L30.0668 43.6209L29.7823 44.0321ZM30.6815 47.6491L31.0897 47.9379L31.1142 47.9033L31.1325 47.865L30.6815 47.6491ZM34.2729 57.452L34.6782 57.745L34.6842 57.7363L34.2729 57.452ZM33.894 57.976L33.4888 57.6831L33.4573 57.7267L33.4358 57.776L33.894 57.976ZM32.0106 59.6165L31.877 59.1347L31.877 59.1347L32.0106 59.6165ZM29.5559 59.1722L29.2624 59.577L29.264 59.5781L29.5559 59.1722ZM28.3512 56.9736L27.8521 57.0025L28.3512 56.9736ZM29.2901 54.6495L29.6284 55.0177L29.6646 54.9844L29.6936 54.9448L29.2901 54.6495ZM30.3365 53.2198L30.74 53.5151L30.7445 53.5087L30.3365 53.2198ZM32.7119 49.8648L33.12 50.1537L33.1204 50.1531L32.7119 49.8648ZM35.8396 45.4332L36.2481 45.7215L36.8045 44.9332H35.8396V45.4332ZM35.834 45.4332L35.4067 45.1735L34.945 45.9332H35.834V45.4332ZM37.6382 44.1117L37.5232 43.6251L37.5205 43.6258L37.6382 44.1117ZM39.8327 44.4706L40.1165 44.0589L40.1073 44.0526L40.0977 44.0466L39.8327 44.4706ZM40.9921 46.3388L40.4976 46.4126L40.4978 46.4137L40.9921 46.3388ZM40.5001 48.4634L40.9097 48.7501L40.9099 48.7498L40.5001 48.4634ZM39.4594 49.95L39.0498 49.6633L39.0481 49.6657L39.4594 49.95ZM41.948 61.4791L42.3533 61.772L42.3566 61.7673L41.948 61.4791ZM41.2523 62.4417H40.7523V63.9872L41.6576 62.7346L41.2523 62.4417ZM41.2523 62.436H41.7523L40.7947 62.2344L41.2523 62.436ZM39.3463 64.0765L39.4729 64.5602L39.476 64.5594L39.3463 64.0765ZM36.8804 63.598L37.1802 63.1979L37.1781 63.1963L36.8804 63.598ZM35.7096 61.3709L35.21 61.39L35.21 61.3901L35.7096 61.3709ZM36.705 59.0527L37.0349 59.4284L37.0795 59.3893L37.1137 59.3408L36.705 59.0527ZM41.8858 51.7047L41.5087 51.3764L41.4919 51.3957L41.4771 51.4166L41.8858 51.7047ZM44.7929 50.8048L44.6653 51.2882L44.6684 51.289L44.7929 50.8048ZM46.8968 53.0148L47.3874 52.9181L47.3862 52.912L46.8968 53.0148ZM46.4048 55.1451L46.0083 54.8405L46.0016 54.8491L45.9953 54.8581L46.4048 55.1451ZM44.6685 57.6228L45.077 57.911L45.0779 57.9098L44.6685 57.6228ZM51.6762 62.6183L52.084 62.9075L51.2705 62.3259L51.6762 62.6183ZM49.8493 65.1531L49.4437 64.8607L49.4384 64.868L49.4335 64.8755L49.8493 65.1531ZM49.6174 65.5005L50.0212 65.7954L50.0274 65.7869L50.0333 65.7781L49.6174 65.5005ZM48.8935 66.4916L48.4897 66.1967L47.9091 66.9916H48.8935V66.4916ZM48.8992 66.4916L49.2581 66.8397L50.0804 65.9916H48.8992V66.4916ZM45.3304 66.9587L45.0715 67.3865L45.0724 67.387L45.3304 66.9587ZM44.0578 63.5753L43.6305 63.3156L43.5987 63.3679L43.5805 63.4264L44.0578 63.5753ZM44.2897 63.1936L43.8817 62.9045L43.8715 62.9189L43.8624 62.934L44.2897 63.1936ZM47.0384 59.3146V58.8146H46.7799L46.6304 59.0255L47.0384 59.3146ZM47.044 59.3146V59.8146H47.2886L47.4388 59.6215L47.044 59.3146ZM50.9522 58.7051L51.2507 58.3039L51.243 58.2982L51.2352 58.2929L50.9522 58.7051ZM51.6196 62.698L51.2066 62.4162L52.0275 62.9873L51.6196 62.698ZM89.0335 49.7851H88.5335L89.5083 49.9418L89.0335 49.7851ZM89.0335 49.7794H89.5335V48.5398L88.6734 49.4325L89.0335 49.7794ZM84.8312 51.6762L84.5646 52.0992L84.6967 52.1824L84.8527 52.1757L84.8312 51.6762ZM67.717 40.8879L67.3622 40.5356L66.9227 40.9783L67.4504 41.3109L67.717 40.8879ZM67.7227 40.8822L68.0775 41.2345L68.5129 40.796L67.9932 40.4617L67.7227 40.8822ZM65.7205 41.3208L66.1408 41.5917L66.1412 41.5911L65.7205 41.3208ZM65.5282 42.4258L66.0164 42.3173L66.0147 42.3105L65.5282 42.4258ZM66.1843 43.3315L66.4518 42.9089L66.4408 42.9023L66.1843 43.3315ZM82.8642 53.8863H83.3642V53.611L83.1315 53.4638L82.8642 53.8863ZM82.8642 53.892L83.3363 54.0567L83.3642 53.9767V53.892H82.8642ZM81.5067 56.1647L81.8713 56.507L81.8756 56.5023L81.5067 56.1647ZM78.1189 57.6514L77.8736 58.087L77.9899 58.1525L78.1234 58.1514L78.1189 57.6514ZM63.0014 49.1358L63.2468 48.7002L63.2458 48.6997L63.0014 49.1358ZM61.0162 49.7054L60.58 49.461L60.5785 49.4636L61.0162 49.7054ZM61.5818 51.7048L61.3347 52.1395L61.3369 52.1407L61.5818 51.7048ZM76.0608 59.8387L76.55 59.9419L76.6259 59.5826L76.3057 59.4028L76.0608 59.8387ZM74.1491 62.7551L74.4252 63.1719L74.432 63.1674L74.4387 63.1627L74.1491 62.7551ZM69.8959 63.4557L70.0251 62.9727L69.9616 62.9557H69.8959V63.4557ZM69.7206 63.4557L69.3773 63.8192L69.5218 63.9557H69.7206V63.4557ZM69.4321 63.2221L69.7109 62.807L69.6849 62.7896L69.657 62.7756L69.4321 63.2221ZM57.8489 57.3894L58.0738 56.9428L58.0573 56.9345L58.0403 56.9274L57.8489 57.3894ZM55.9995 58.0786L56.4459 58.3039L56.4474 58.3009L55.9995 58.0786ZM56.5425 59.9868L56.2839 60.4147L56.2997 60.4243L56.3162 60.4327L56.5425 59.9868ZM67.6337 65.6145L68.0489 65.8931L68.3636 65.4242L67.8599 65.1686L67.6337 65.6145ZM64.7379 67.8018L64.8273 68.2938L64.8599 68.2878L64.8915 68.2776L64.7379 67.8018ZM53.1547 65.7284L52.7357 65.4555L52.4506 65.8932L52.9003 66.1589L53.1547 65.7284ZM54.0822 64.3044L53.6725 64.0178L53.6678 64.0246L53.6633 64.0315L54.0822 64.3044ZM55.0663 59.9869L55.5597 59.9055L55.5584 59.8979L55.0663 59.9869ZM49.6819 55.2022L49.2025 55.0601L49.0227 55.6665L49.6543 55.7015L49.6819 55.2022ZM49.8516 52.4909L50.3451 52.4108L50.3446 52.4074L49.8516 52.4909ZM47.5383 48.76L47.8315 48.355L47.83 48.3539L47.5383 48.76ZM43.9467 47.6777L43.4524 47.6026L43.3614 48.2015L43.9667 48.1773L43.9467 47.6777ZM43.9467 45.9859L44.4412 45.9116L44.4398 45.9022L44.438 45.893L43.9467 45.9859ZM33.6077 43.5936L34.0079 43.8933L34.0096 43.8911L33.6077 43.5936ZM33.3475 43.9411L32.9473 43.6414L32.8475 43.7746V43.9411H33.3475ZM33.3475 43.9468L32.8889 44.146L33.8475 43.9468H33.3475ZM31.4925 41.7025L31.2045 42.1112L31.2097 42.1149L31.4925 41.7025ZM23.5008 43.041L23.8915 43.353L23.8987 43.344L23.9054 43.3348L23.5008 43.041ZM23.2689 43.3315L22.9098 43.6795L23.3052 44.0875L23.6596 43.6435L23.2689 43.3315ZM17.4773 36.5077L17.042 36.2617L16.882 36.5448L17.0759 36.8059L17.4773 36.5077ZM30.1012 14.1682V13.6682H29.8095L29.6659 13.9222L30.1012 14.1682ZM30.1069 14.1682L30.4612 13.8154L30.3146 13.6682H30.1069V14.1682ZM36.7073 18.2237L36.5528 18.6992L36.5941 18.7127L36.6372 18.7188L36.7073 18.2237ZM39.6031 18.6338L39.9991 18.9391L40.5231 18.2591L39.6732 18.1388L39.6031 18.6338ZM36.4753 25.2811L36.9616 25.3978L36.963 25.3917L36.4753 25.2811ZM38.1834 31.3759L38.5402 31.0256L38.5382 31.0236L38.1834 31.3759ZM43.9751 33.1246L43.8751 32.6347L43.8702 32.6357L43.9751 33.1246ZM49.5913 29.7127L49.9799 30.0274L49.9861 30.0197L49.992 30.0118L49.5913 29.7127ZM52.4871 25.8336L52.3597 25.3502L52.1909 25.3947L52.0865 25.5345L52.4871 25.8336ZM56.5706 24.7571L56.776 24.3012L56.6145 24.2285L56.4432 24.2736L56.5706 24.7571ZM87.8758 45.1717L87.5416 45.5437L87.6841 45.6717H87.8758V45.1717ZM88.0511 45.1717L88.4363 44.853L88.2863 44.6717H88.0511V45.1717ZM88.3395 45.4338L88.6384 45.0329L88.6309 45.0273L88.6232 45.022L88.3395 45.4338ZM89.4707 47.2394L88.9793 47.3316L88.9813 47.3425L88.9838 47.3532L89.4707 47.2394ZM89.0352 49.7799L88.614 49.5105L88.5801 49.5635L88.5604 49.6231L89.0352 49.7799ZM89.4124 42.5226L89.3259 43.015L90.8724 43.2866L89.7678 42.1708L89.4124 42.5226ZM89.4068 42.5169L89.7621 42.1651L89.7515 42.1544L89.7403 42.1444L89.4068 42.5169ZM57.3546 21.8397L57.5562 21.3822L57.5084 21.3611L57.4572 21.3504L57.3546 21.8397ZM56.5401 21.8397L56.4669 22.3343L56.5564 22.3476L56.6449 22.3286L56.5401 21.8397ZM55.9632 21.8397L55.89 21.3451L55.8619 21.3493L55.8345 21.3566L55.9632 21.8397ZM51.4724 23.0359L51.3437 22.5527L51.3356 22.555L51.4724 23.0359ZM50.2564 23.8504L49.8643 23.5401L49.8572 23.5492L49.8505 23.5585L50.2564 23.8504ZM47.3606 27.8775L47.7444 28.198L47.756 28.1841L47.7665 28.1694L47.3606 27.8775ZM43.3958 30.2698L43.4991 30.759L43.5017 30.7585L43.3958 30.2698ZM40.2116 29.3072L40.5688 28.9573L40.5686 28.9571L40.2116 29.3072ZM39.2557 25.8953L39.7424 26.01L39.7435 26.0054L39.2557 25.8953ZM43.5372 18.5702L43.2047 18.1968L43.2025 18.1988L43.5372 18.5702ZM48.7802 15.2209L48.9785 15.6799L48.9822 15.6783L48.7802 15.2209ZM74.2662 15.426L74.1346 15.9084L74.7662 16.0806V15.426H74.2662ZM74.2662 15.4203L74.4165 14.9434L73.7662 14.7384V15.4203H74.2662ZM78.8078 16.4456L78.7381 16.9407L78.7465 16.9419L78.7549 16.9428L78.8078 16.4456ZM84.5994 15.0443L85.0348 14.7985L84.7718 14.3329L84.3249 14.6265L84.5994 15.0443ZM96.8217 36.6839L97.2281 36.9751L97.414 36.7158L97.2571 36.438L96.8217 36.6839ZM89.3786 42.5166L89.1935 42.0522L87.5574 42.7044L89.2921 43.0091L89.3786 42.5166ZM102.268 40.3637L101.833 40.6097L102.081 41.0493L102.518 40.7966L102.268 40.3637ZM99.5478 35.5505L99.1124 35.7965L99.1125 35.7965L99.5478 35.5505ZM86.7768 12.9486L86.3414 13.1944L86.3415 13.1946L86.7768 12.9486ZM84.0281 8.07854L83.7741 7.64788L83.3516 7.89711L83.5927 8.3243L84.0281 8.07854ZM91.5504 3.64127L91.986 3.39575L91.7356 2.95153L91.2964 3.21062L91.5504 3.64127ZM109.797 36.0116L110.047 36.4445L110.475 36.1969L110.232 35.7661L109.797 36.0116ZM113.071 34.8944L94.1585 1.38527L93.2877 1.87679L112.2 35.386L113.071 34.8944ZM94.1516 1.37333C93.4186 0.154608 91.8802 -0.300641 90.6044 0.334756L91.0502 1.22988C91.8559 0.828594 92.8286 1.11384 93.2946 1.88873L94.1516 1.37333ZM90.5783 0.348747L81.8909 5.33852L82.3889 6.20567L91.0763 1.21589L90.5783 0.348747ZM81.8898 5.33916C80.5757 6.09836 80.1233 7.77994 80.8668 9.10416L81.7388 8.61458C81.2606 7.76289 81.5548 6.68756 82.39 6.20503L81.8898 5.33916ZM80.8541 9.07998L82.5904 12.6116L83.4878 12.1704L81.7515 8.63876L80.8541 9.07998ZM82.7548 11.9797C81.6286 12.7585 80.2598 13.0922 78.9076 12.9148L78.7775 13.9063C80.3775 14.1162 81.995 13.7209 83.3235 12.8022L82.7548 11.9797ZM78.9163 12.916C77.5679 12.7148 76.236 12.4074 74.9371 11.9994L74.6374 12.9534C75.9856 13.377 77.3684 13.6962 78.7688 13.9051L78.9163 12.916ZM74.9176 11.9937C68.5656 10.2779 57.7711 7.30182 47.1594 12.0195L47.5657 12.9333C57.8125 8.37779 68.272 11.2344 74.6569 12.9591L74.9176 11.9937ZM47.1687 12.0155C45.129 12.8734 43.2341 14.0523 41.5593 15.5113L42.2162 16.2653C43.8104 14.8764 45.6144 13.7541 47.5564 12.9373L47.1687 12.0155ZM41.8877 15.3883C41.4514 15.3883 40.7623 15.3073 39.9036 15.1827C39.0409 15.0575 38.087 14.9011 37.0688 14.75L36.922 15.7392C37.9003 15.8843 38.9147 16.0497 39.76 16.1723C40.6094 16.2956 41.3682 16.3883 41.8877 16.3883V15.3883ZM36.4954 15.2446V15.2503H37.4954V15.2446H36.4954ZM37.1831 14.7869C35.1941 13.9812 33.3857 12.767 31.8842 11.2273L31.1683 11.9255C32.7662 13.5641 34.6905 14.8562 36.8077 15.7137L37.1831 14.7869ZM31.9619 11.8218L33.1779 9.66295L32.3066 9.17218L31.0906 11.331L31.9619 11.8218ZM33.1782 9.66235C33.9225 8.33674 33.4623 6.6501 32.1497 5.89167L31.6494 6.75753C32.486 7.2409 32.7837 8.32251 32.3063 9.17278L33.1782 9.66235ZM32.1486 5.89103L23.4611 0.901255L22.9631 1.7684L31.6505 6.75817L32.1486 5.89103ZM22.7121 1.33483V1.34051L23.7121 1.34051V1.33483L22.7121 1.33483ZM23.463 0.908029C22.8246 0.537616 22.0655 0.445597 21.3607 0.656436L21.6473 1.61449C22.085 1.48356 22.559 1.53963 22.9612 1.773L23.463 0.908029ZM21.3842 0.650034C20.6715 0.82595 20.0586 1.29632 19.7029 1.94243L20.579 2.42465C20.8002 2.0227 21.1827 1.72979 21.6238 1.62089L21.3842 0.650034ZM19.7051 1.93854L0.853397 35.4769L1.72512 35.9669L20.5768 2.42853L19.7051 1.93854ZM0.853232 35.4772C0.494272 36.1168 0.404049 36.875 0.604819 37.5792L1.56649 37.305C1.4392 36.8585 1.49605 36.375 1.72529 35.9666L0.853232 35.4772ZM0.60094 37.5648C0.780353 38.2736 1.23768 38.8921 1.89027 39.2525L2.37372 38.3772C1.9743 38.1566 1.68506 37.7725 1.57037 37.3194L0.60094 37.5648ZM1.88297 39.2484L10.5704 44.2382L11.0684 43.3711L2.38103 38.3813L1.88297 39.2484ZM11.3194 43.8046V43.7989H10.3194V43.8046H11.3194ZM10.5684 44.2314C10.9777 44.4689 11.4456 44.5965 11.9241 44.5894L11.9092 43.5895C11.6185 43.5938 11.3285 43.5163 11.0704 43.3665L10.5684 44.2314ZM11.8474 44.5846C12.0969 44.6195 12.3472 44.6195 12.5967 44.5846L12.4582 43.5943C12.3006 43.6163 12.1436 43.6163 11.9859 43.5943L11.8474 44.5846ZM12.6473 44.5749C13.362 44.3984 13.9683 43.9267 14.3229 43.2825L13.4469 42.8003C13.2246 43.2041 12.8467 43.4956 12.4077 43.604L12.6473 44.5749ZM14.3194 43.2887L16.3782 39.6717L15.5091 39.177L13.4504 42.794L14.3194 43.2887ZM15.5439 39.7246C17.2594 42.0091 19.1229 44.1785 21.1173 46.2216L21.8329 45.523C19.8681 43.5103 18.0328 41.3736 16.3435 39.1241L15.5439 39.7246ZM21.0636 45.5883L20.5998 46.2605L21.4229 46.8284L21.8866 46.1563L21.0636 45.5883ZM20.6011 46.2586C19.8637 47.3169 19.4706 48.5729 19.4706 49.8652H20.4706C20.4706 48.7764 20.8015 47.7201 21.4215 46.8303L20.6011 46.2586ZM19.4706 49.8652C19.4706 51.899 20.4406 53.8036 22.0802 54.9971L22.6687 54.1887C21.2879 53.1835 20.4706 51.5795 20.4706 49.8652H19.4706ZM22.0762 54.9942C23.1131 55.765 24.3788 56.1819 25.6765 56.1694L25.667 55.1695C24.5893 55.1798 23.5361 54.8334 22.6727 54.1916L22.0762 54.9942ZM25.6718 56.1694H25.9036V55.1694H25.6718V56.1694ZM25.4089 55.5972C25.3171 56.2261 25.3171 56.8615 25.4089 57.4904L26.3984 57.3459C26.3206 56.8128 26.3206 56.2748 26.3984 55.7417L25.4089 55.5972ZM25.4112 57.5048C25.6997 59.1428 26.6144 60.5961 27.9594 61.561L28.5423 60.7485C27.41 59.9361 26.6393 58.7124 26.3961 57.3314L25.4112 57.5048ZM27.9553 61.558C28.9964 62.3211 30.26 62.7375 31.5562 62.7313L31.5514 61.7313C30.4722 61.7365 29.417 61.3896 28.5464 60.7514L27.9553 61.558ZM31.5538 62.7313C32.1908 62.7313 32.8237 62.6387 33.4391 62.4465L33.1411 61.492C32.6254 61.653 32.0932 61.7313 31.5538 61.7313V62.7313ZM32.7994 62.0651C33.1551 63.8873 34.2842 65.4646 35.8948 66.3748L36.3867 65.5042C35.0335 64.7394 34.0812 63.4118 33.7809 61.8734L32.7994 62.0651ZM35.8968 66.3759C37.5109 67.2783 39.4346 67.434 41.1691 66.7836L40.818 65.8472C39.3625 66.393 37.7455 66.2638 36.3848 65.503L35.8968 66.3759ZM40.5076 66.433C40.864 67.9059 41.7364 69.192 42.9571 70.0754L43.5434 69.2653C42.513 68.5197 41.7792 67.4362 41.4795 66.1978L40.5076 66.433ZM42.9574 70.0756C44.0063 70.8337 45.2702 71.2309 46.558 71.2184L46.5484 70.2185C45.4721 70.2289 44.4172 69.8969 43.5431 69.2652L42.9574 70.0756ZM46.5532 71.2185H47.5373V70.2185H46.5532V71.2185ZM47.6161 71.2122C49.2507 70.9513 50.7046 70.0322 51.6525 68.6684L50.8314 68.0977C50.0372 69.2403 48.8217 70.0071 47.4585 70.2247L47.6161 71.2122ZM51.7419 68.383V68.2065H50.7419V68.383H51.7419ZM50.7419 68.2065V68.2121H51.7419V68.2065H50.7419ZM51.0085 68.6543C54.3644 70.4255 58.0611 71.442 61.8447 71.6279L61.8938 70.6291C58.2569 70.4505 54.7027 69.4733 51.4753 67.77L51.0085 68.6543ZM61.8758 71.6285C63.2267 71.6107 64.5671 71.367 65.8379 70.8968L65.4908 69.959C64.3294 70.3887 63.1021 70.6122 61.8627 70.6286L61.8758 71.6285ZM65.812 70.9056C68.0016 70.229 69.8425 68.7188 70.9396 66.6961L70.0605 66.2193C69.0877 68.013 67.456 69.3509 65.5167 69.9502L65.812 70.9056ZM70.5 66.9577H71.4559V65.9577H70.5V66.9577ZM71.4524 66.9577C73.1778 66.9698 74.8616 66.455 76.2867 65.474L75.7197 64.6503C74.4638 65.5148 72.9805 65.9684 71.4594 65.9577L71.4524 66.9577ZM76.2954 65.4678C77.9445 64.2798 79.1048 62.5232 79.5616 60.5377L78.5871 60.3134C78.1841 62.0646 77.1612 63.6117 75.7109 64.6565L76.2954 65.4678ZM79.1277 60.9227C81.0564 60.7157 82.8443 59.7905 84.1367 58.3369L83.3894 57.6725C82.2609 58.9417 80.7007 59.7481 79.021 59.9284L79.1277 60.9227ZM84.1397 58.3335C85.09 57.2449 85.803 55.9764 86.2367 54.5943L85.2825 54.295C84.8905 55.5444 84.2461 56.691 83.3864 57.6759L84.1397 58.3335ZM85.8045 54.9426C88.215 54.7253 90.4263 53.5296 91.9416 51.6356L91.1608 51.0109C89.8141 52.694 87.8515 53.754 85.7147 53.9467L85.8045 54.9426ZM91.9704 51.5957C92.9555 50.08 93.2786 48.2216 92.8816 46.4627L91.9062 46.6828C92.2445 48.1821 91.9681 49.7641 91.1319 51.0508L91.9704 51.5957ZM92.8824 46.4659C92.7236 45.7403 92.4489 45.0519 92.0709 44.4194L91.2125 44.9325C91.5358 45.4734 91.7701 46.0609 91.9055 46.6796L92.8824 46.4659ZM91.8568 45.1273C94.5649 43.8366 96.9596 41.9563 98.8614 39.6264L98.0867 38.9941C96.2781 41.2097 94.001 42.9976 91.4266 44.2246L91.8568 45.1273ZM98.0408 39.5598L99.7206 42.4762L100.587 41.9771L98.9073 39.0607L98.0408 39.5598ZM99.7179 42.4714C100.077 43.1109 100.676 43.5826 101.379 43.7839L101.655 42.8225C101.204 42.6934 100.819 42.3904 100.59 41.9819L99.7179 42.4714ZM101.446 43.7981C101.692 43.8335 101.943 43.8332 102.191 43.7984L102.053 42.808C101.895 42.8302 101.738 42.8299 101.588 42.8083L101.446 43.7981ZM102.137 43.803C102.595 43.7894 103.051 43.6739 103.462 43.4532L102.988 42.5722C102.721 42.716 102.418 42.7942 102.107 42.8034L102.137 43.803ZM103.474 43.4463L112.161 38.4565L111.663 37.5893L102.976 42.5791L103.474 43.4463ZM112.16 38.4575C112.794 38.0963 113.263 37.4991 113.463 36.7917L112.5 36.52C112.372 36.9747 112.071 37.3572 111.665 37.5884L112.16 38.4575ZM113.477 36.7194C113.56 36.0755 113.416 35.4131 113.053 34.8647L112.219 35.4166C112.445 35.7569 112.539 36.1767 112.485 36.5923L113.477 36.7194ZM112.884 34.7063L112.883 34.7058L112.388 35.5746L112.389 35.575L112.884 34.7063ZM14.1482 35.4678L11.2524 40.3949L12.1146 40.9016L15.0104 35.9745L14.1482 35.4678ZM11.9225 40.2091L4.3662 36.0966L3.88816 36.9749L11.4445 41.0874L11.9225 40.2091ZM4.56233 36.782L22.8653 4.43938L21.995 3.94687L3.69203 36.2895L4.56233 36.782ZM22.1808 4.62655L29.7371 8.97268L30.2357 8.10583L22.6794 3.7597L22.1808 4.62655ZM29.5514 8.2927L14.1443 35.4746L15.0143 35.9678L30.4214 8.78581L29.5514 8.2927ZM27.6213 51.1094C26.8474 52.1154 25.4356 52.3481 24.3902 51.6385L23.8286 52.4659C25.3171 53.4763 27.3213 53.1396 28.4139 51.7191L27.6213 51.1094ZM24.4093 51.6521C23.3845 50.8839 23.1395 49.434 23.857 48.3666L23.027 47.8087C22.0138 49.3162 22.3571 51.3635 23.8095 52.4523L24.4093 51.6521ZM23.8541 48.3707L24.8948 46.8555L24.0705 46.2894L23.0298 47.8046L23.8541 48.3707ZM24.8895 46.8631L26.2243 44.9949L25.4106 44.4136L24.0758 46.2818L24.8895 46.8631ZM26.2206 45C26.9888 43.9527 28.4377 43.7096 29.4977 44.4432L30.0668 43.6209C28.5592 42.5775 26.5012 42.9267 25.4143 44.4085L26.2206 45ZM29.4851 44.4342C30.4177 45.1233 30.7323 46.3848 30.2305 47.4333L31.1325 47.865C31.8412 46.3843 31.3978 44.6041 30.0794 43.6299L29.4851 44.4342ZM30.2734 47.3603L27.6094 51.1254L28.4257 51.703L31.0897 47.9379L30.2734 47.3603ZM33.8678 57.159L33.4888 57.6831L34.2992 58.269L34.6781 57.745L33.8678 57.159ZM33.4358 57.776C33.1447 58.4427 32.5729 58.9418 31.877 59.1347L32.1441 60.0983C33.1337 59.8241 33.942 59.1156 34.3522 58.1761L33.4358 57.776ZM31.877 59.1347C31.1826 59.3271 30.4395 59.1918 29.8479 58.7663L29.264 59.5781C30.0977 60.1779 31.1531 60.373 32.1441 60.0983L31.877 59.1347ZM29.8495 58.7674C29.263 58.3422 28.8925 57.6709 28.8504 56.9446L27.8521 57.0025C27.9117 58.0306 28.4349 58.9769 29.2624 59.577L29.8495 58.7674ZM28.8504 56.9446C28.8082 56.2165 29.0947 55.5081 29.6284 55.0177L28.9518 54.2813C28.196 54.9758 27.7925 55.9762 27.8521 57.0025L28.8504 56.9446ZM29.6936 54.9448L30.7399 53.5151L29.933 52.9245L28.8866 54.3542L29.6936 54.9448ZM30.7445 53.5087L33.12 50.1537L32.3038 49.5759L29.9284 52.9309L30.7445 53.5087ZM33.1204 50.1531L36.2481 45.7215L35.4311 45.1449L32.3034 49.5765L33.1204 50.1531ZM35.8396 44.9332H35.834V45.9332H35.8396V44.9332ZM36.2613 45.6929C36.5944 45.1448 37.1339 44.7484 37.756 44.5977L37.5205 43.6258C36.638 43.8396 35.8767 44.4002 35.4067 45.1735L36.2613 45.6929ZM37.7533 44.5983C38.3717 44.452 39.0264 44.5562 39.5676 44.8945L40.0977 44.0466C39.3269 43.5647 38.3979 43.4182 37.5232 43.6251L37.7533 44.5983ZM39.5488 44.8822C40.061 45.2354 40.4046 45.79 40.4976 46.4126L41.4866 46.265C41.3534 45.3726 40.86 44.5716 40.1165 44.0589L39.5488 44.8822ZM40.4978 46.4137C40.5919 47.035 40.4455 47.6686 40.0902 48.177L40.9099 48.7498C41.4143 48.028 41.6185 47.135 41.4865 46.2639L40.4978 46.4137ZM40.0905 48.1766L39.0498 49.6633L39.869 50.2367L40.9097 48.7501L40.0905 48.1766ZM39.0481 49.6657L33.8617 57.1677L34.6842 57.7363L39.8707 50.2343L39.0481 49.6657ZM41.5427 61.1862L40.8471 62.1488L41.6576 62.7346L42.3532 61.7719L41.5427 61.1862ZM41.7523 62.4417V62.436H40.7523V62.4417H41.7523ZM40.7947 62.2344C40.499 62.9058 39.9176 63.4053 39.2166 63.5936L39.476 64.5594C40.4717 64.2919 41.293 63.5839 41.7099 62.6376L40.7947 62.2344ZM39.2196 63.5928C38.5162 63.777 37.7632 63.6347 37.1802 63.1979L36.5806 63.9982C37.4116 64.6208 38.4796 64.8203 39.4729 64.5602L39.2196 63.5928ZM37.1781 63.1963C36.5941 62.7635 36.2374 62.0845 36.2092 61.3517L35.21 61.3901C35.2497 62.423 35.7526 63.3845 36.5826 63.9997L37.1781 63.1963ZM36.2093 61.3518C36.1811 60.614 36.4861 59.9102 37.0349 59.4284L36.3752 58.6769C35.6005 59.357 35.1703 60.3507 35.21 61.39L36.2093 61.3518ZM37.1137 59.3408L42.2944 51.9929L41.4771 51.4166L36.2964 58.7646L37.1137 59.3408ZM42.2629 52.033C42.8628 51.3439 43.793 51.058 44.6653 51.2882L44.9205 50.3213C43.6774 49.9933 42.3567 50.4023 41.5087 51.3764L42.2629 52.033ZM44.6684 51.289C45.5451 51.5144 46.22 52.2249 46.4075 53.1176L47.3862 52.912C47.1214 51.6516 46.1673 50.6419 44.9174 50.3205L44.6684 51.289ZM46.4063 53.1115C46.5262 53.7201 46.3823 54.3536 46.0083 54.8405L46.8013 55.4497C47.3548 54.7292 47.5616 53.8019 47.3874 52.9181L46.4063 53.1115ZM45.9953 54.8581L44.259 57.3359L45.0779 57.9098L46.8142 55.432L45.9953 54.8581ZM44.2599 57.3346L41.5394 61.1908L42.3566 61.7673L45.077 57.911L44.2599 57.3346ZM51.2705 62.3259L49.4437 64.8607L50.255 65.4454L52.0818 62.9106L51.2705 62.3259ZM49.4335 64.8755L49.2016 65.2229L50.0333 65.7781L50.2652 65.4306L49.4335 64.8755ZM49.2137 65.2056L48.4897 66.1967L49.2972 66.7866L50.0212 65.7954L49.2137 65.2056ZM48.8935 66.9916H48.8992V65.9916H48.8935V66.9916ZM48.5402 66.1436C47.7627 66.9454 46.5421 67.1049 45.5883 66.5304L45.0724 67.387C46.426 68.2024 48.1578 67.9745 49.2581 66.8397L48.5402 66.1436ZM45.5893 66.531C44.6397 65.9562 44.2015 64.7939 44.5351 63.7241L43.5805 63.4264C43.1111 64.9312 43.7247 66.5713 45.0715 67.3865L45.5893 66.531ZM44.4851 63.8349L44.717 63.4533L43.8624 62.934L43.6305 63.3156L44.4851 63.8349ZM44.6976 63.4827L47.4463 59.6036L46.6304 59.0255L43.8817 62.9045L44.6976 63.4827ZM47.0384 59.8146H47.044V58.8146H47.0384V59.8146ZM47.4388 59.6215C48.2156 58.6223 49.6267 58.4017 50.6692 59.1173L51.2352 58.2929C49.7552 57.2769 47.7502 57.5917 46.6493 59.0077L47.4388 59.6215ZM50.6538 59.1062C51.6936 59.8799 51.9381 61.3442 51.2066 62.4162L52.0326 62.9799C53.0657 61.4659 52.722 59.3986 51.2507 58.3039L50.6538 59.1062ZM52.0275 62.9873L52.084 62.9075L51.2683 62.329L51.2118 62.4088L52.0275 62.9873ZM89.5335 49.7851V49.7794H88.5335V49.7851H89.5335ZM88.6734 49.4325C87.6538 50.4908 86.2705 51.1138 84.8097 51.1767L84.8527 52.1757C86.5704 52.1018 88.1961 51.3692 89.3936 50.1263L88.6734 49.4325ZM85.0979 51.2532L67.9837 40.465L67.4504 41.3109L84.5646 52.0992L85.0979 51.2532ZM68.0718 41.2402L68.0775 41.2345L67.3679 40.5299L67.3622 40.5356L68.0718 41.2402ZM67.9932 40.4617C67.0871 39.8789 65.8843 40.141 65.2999 41.0505L66.1412 41.5911C66.4279 41.1449 67.0122 41.0197 67.4522 41.3027L67.9932 40.4617ZM65.3003 41.0499C65.0193 41.4859 64.919 42.0236 65.0417 42.5412L66.0147 42.3105C65.9565 42.0648 66.0032 41.8051 66.1408 41.5917L65.3003 41.0499ZM65.0402 42.5343C65.1552 43.0521 65.4778 43.4919 65.9279 43.7607L66.4408 42.9023C66.2234 42.7724 66.0709 42.5629 66.0163 42.3174L65.0402 42.5343ZM65.917 43.754L82.5968 54.3088L83.1315 53.4638L66.4517 42.909L65.917 43.754ZM82.3642 53.8863V53.892H83.3642V53.8863H82.3642ZM82.3921 53.7273C82.1204 54.5061 81.6917 55.2221 81.1379 55.8271L81.8756 56.5023C82.5208 55.7974 83.0198 54.9639 83.3363 54.0567L82.3921 53.7273ZM81.1422 55.8225C80.3533 56.6628 79.2561 57.1412 78.1145 57.1514L78.1234 58.1514C79.5381 58.1388 80.8955 57.5463 81.8713 56.507L81.1422 55.8225ZM78.3643 57.2157L63.2468 48.7002L62.756 49.5715L77.8736 58.087L78.3643 57.2157ZM63.2458 48.6997C62.2992 48.1692 61.1084 48.5182 60.58 49.461L61.4523 49.9499C61.7156 49.4801 62.3009 49.3164 62.757 49.572L63.2458 48.6997ZM60.5785 49.4636C60.0551 50.4109 60.3966 51.6062 61.3347 52.1394L61.8289 51.2701C61.3642 51.006 61.1967 50.4126 61.4538 49.9472L60.5785 49.4636ZM61.3369 52.1407L75.8159 60.2746L76.3057 59.4028L61.8267 51.2688L61.3369 52.1407ZM75.5716 59.7354C75.3486 60.7917 74.7355 61.7253 73.8596 62.3474L74.4387 63.1627C75.5197 62.3949 76.2752 61.2438 76.55 59.9419L75.5716 59.7354ZM73.873 62.3382C72.7358 63.0914 71.3335 63.3227 70.0251 62.9727L69.7667 63.9387C71.3541 64.3633 73.0512 64.082 74.4252 63.1719L73.873 62.3382ZM69.8959 62.9557H69.7206V63.9557H69.8959V62.9557ZM70.0639 63.0921C69.9582 62.9924 69.8405 62.8941 69.7109 62.807L69.1534 63.6372C69.2273 63.6869 69.302 63.7481 69.3773 63.8192L70.0639 63.0921ZM69.657 62.7756L58.0738 56.9428L57.624 57.836L69.2073 63.6687L69.657 62.7756ZM58.0403 56.9274C57.0991 56.5376 56.0093 56.9342 55.5516 57.8563L56.4474 58.3009C56.6682 57.8559 57.1961 57.6602 57.6576 57.8513L58.0403 56.9274ZM55.5531 57.8533C55.0913 58.7682 55.4079 59.8855 56.2839 60.4147L56.801 59.5588C56.3762 59.3022 56.2177 58.756 56.4459 58.3039L55.5531 57.8533ZM56.3162 60.4327L67.4074 66.0604L67.8599 65.1686L56.7687 59.5409L56.3162 60.4327ZM67.2185 65.3359C66.5851 66.2799 65.6589 66.9791 64.5843 67.326L64.8915 68.2776C66.181 67.8613 67.291 67.0225 68.0489 65.8931L67.2185 65.3359ZM64.6485 67.3099C60.7851 68.0118 56.7953 67.2988 53.409 65.2979L52.9003 66.1589C56.4935 68.282 60.7272 69.0386 64.8273 68.2938L64.6485 67.3099ZM53.5736 66.0013L54.5012 64.5773L53.6633 64.0315L52.7357 65.4555L53.5736 66.0013ZM54.4919 64.591C55.4431 63.2314 55.8299 61.5444 55.5597 59.9055L54.573 60.0682C54.8005 61.4481 54.4747 62.8712 53.6725 64.0178L54.4919 64.591ZM55.5584 59.8979C55.0369 57.0123 52.6181 54.8639 49.7095 54.703L49.6543 55.7015C52.0963 55.8366 54.1343 57.6414 54.5743 60.0758L55.5584 59.8979ZM50.1612 55.3444C50.4431 54.3941 50.504 53.3896 50.3451 52.4108L49.358 52.571C49.4932 53.4036 49.441 54.256 49.2025 55.0601L50.1612 55.3444ZM50.3446 52.4074C50.0683 50.775 49.1654 49.3207 47.8315 48.355L47.245 49.165C48.3659 49.9764 49.1259 51.1994 49.3586 52.5743L50.3446 52.4074ZM47.83 48.3539C46.6939 47.5376 45.323 47.1224 43.9268 47.1781L43.9667 48.1773C45.1381 48.1306 46.2899 48.4786 47.2465 49.166L47.83 48.3539ZM44.4411 47.7528C44.5335 47.1446 44.5334 46.5246 44.4412 45.9116L43.4523 46.0603C43.5297 46.5752 43.5296 47.0944 43.4524 47.6026L44.4411 47.7528ZM44.438 45.893C43.9717 43.4273 42.0995 41.4655 39.6648 40.9021L39.4393 41.8764C41.4841 42.3495 43.0621 43.9991 43.4554 46.0788L44.438 45.893ZM39.6648 40.9021C37.2293 40.3386 34.6977 41.2806 33.2058 43.2961L34.0096 43.8911C35.2666 42.1929 37.3953 41.4034 39.4393 41.8764L39.6648 40.9021ZM33.2075 43.2939L32.9473 43.6414L33.7477 44.2408L34.0079 43.8933L33.2075 43.2939ZM32.8475 43.9411V43.9468H33.8475V43.9411H32.8475ZM33.8061 43.7475C33.3723 42.7489 32.666 41.9008 31.7752 41.2901L31.2097 42.1149C31.9477 42.6208 32.5309 43.3219 32.8889 44.146L33.8061 43.7475ZM31.7804 41.2937C28.977 39.3186 25.1168 39.9638 23.0961 42.7473L23.9054 43.3348C25.6061 40.9919 28.8499 40.4523 31.2045 42.1112L31.7804 41.2937ZM23.11 42.7291L22.8781 43.0196L23.6596 43.6435L23.8915 43.353L23.11 42.7291ZM23.6279 42.9836C21.5678 40.8579 19.6476 38.5904 17.8786 36.2095L17.0759 36.8059C18.8702 39.2209 20.8185 41.5217 22.9098 43.6795L23.6279 42.9836ZM17.9126 36.7536L30.5365 14.4142L29.6659 13.9222L17.042 36.2617L17.9126 36.7536ZM30.1012 14.6682H30.1069V13.6682H30.1012V14.6682ZM29.7526 14.5211C31.6579 16.434 33.9887 17.866 36.5528 18.6992L36.8618 17.7482C34.4486 16.964 32.2547 15.6162 30.4612 13.8154L29.7526 14.5211ZM36.6372 18.7188L39.533 19.1289L39.6732 18.1388L36.7774 17.7287L36.6372 18.7188ZM39.2071 18.3286C37.6527 20.3455 36.5526 22.6788 35.9877 25.1706L36.963 25.3917C37.4957 23.0417 38.5332 20.8412 39.9991 18.9391L39.2071 18.3286ZM35.9891 25.1645C35.4226 27.5263 36.1231 30.0105 37.8286 31.7282L38.5382 31.0236C37.0764 29.5514 36.4761 27.4219 36.9616 25.3978L35.9891 25.1645ZM37.8267 31.7262C39.4559 33.3854 41.8128 34.0997 44.0799 33.6135L43.8702 32.6357C41.9407 33.0495 39.9313 32.4423 38.5402 31.0256L37.8267 31.7262ZM44.075 33.6145C46.3942 33.1414 48.4815 31.8776 49.9799 30.0274L49.2028 29.398C47.8505 31.0679 45.9673 32.2079 43.8751 32.6347L44.075 33.6145ZM49.992 30.0118L52.8878 26.1328L52.0865 25.5345L49.1907 29.4136L49.992 30.0118ZM52.6146 26.3171L56.6981 25.2406L56.4432 24.2736L52.3597 25.3502L52.6146 26.3171ZM56.3653 25.213C67.7373 30.3352 78.248 37.1934 87.5416 45.5437L88.2099 44.7998C78.84 36.3809 68.2424 29.4659 56.776 24.3012L56.3653 25.213ZM87.8758 45.6717H88.0511V44.6717H87.8758V45.6717ZM87.6658 45.4905C87.7829 45.6319 87.9142 45.7479 88.0558 45.8455L88.6232 45.022C88.5499 44.9715 88.4889 44.9166 88.4363 44.853L87.6658 45.4905ZM88.0406 45.8346C88.5299 46.1994 88.8671 46.7337 88.9793 47.3316L89.9621 47.1472C89.8028 46.2983 89.3255 45.5453 88.6384 45.0329L88.0406 45.8346ZM88.9838 47.3532C89.1567 48.0931 89.0222 48.8721 88.614 49.5105L89.4564 50.0492C90.0097 49.184 90.1919 48.1288 89.9576 47.1257L88.9838 47.3532ZM88.5604 49.6231L88.5587 49.6283L89.5083 49.9418L89.51 49.9366L88.5604 49.6231ZM89.7678 42.1708L89.7621 42.1651L89.0515 42.8686L89.0571 42.8743L89.7678 42.1708ZM89.7403 42.1444C80.1599 33.5653 69.3007 26.5582 57.5562 21.3822L57.1529 22.2973C68.8008 27.4307 79.5709 34.3802 89.0732 42.8893L89.7403 42.1444ZM57.4572 21.3504C57.1188 21.2794 56.771 21.2789 56.4354 21.3508L56.6449 22.3286C56.8409 22.2866 57.0474 22.2862 57.2519 22.3291L57.4572 21.3504ZM56.6134 21.3451C56.3725 21.3095 56.1308 21.3095 55.89 21.3451L56.0365 22.3343C56.1802 22.3131 56.3231 22.3131 56.4669 22.3343L56.6134 21.3451ZM55.8345 21.3566L51.3437 22.5528L51.6011 23.5191L56.0919 22.3229L55.8345 21.3566ZM51.3356 22.555C50.7531 22.7206 50.2399 23.0656 49.8643 23.5401L50.6485 24.1607C50.895 23.8492 51.2302 23.6246 51.6092 23.5168L51.3356 22.555ZM49.8505 23.5585L46.9547 27.5856L47.7665 28.1694L50.6623 24.1423L49.8505 23.5585ZM46.9768 27.557C46.031 28.6894 44.7323 29.4685 43.2899 29.7812L43.5017 30.7585C45.1587 30.3992 46.654 29.5035 47.7444 28.198L46.9768 27.557ZM43.2925 29.7806C42.3004 29.9902 41.275 29.6783 40.5688 28.9573L39.8544 29.6571C40.7996 30.6221 42.1723 31.0393 43.4991 30.759L43.2925 29.7806ZM40.5686 28.9571C39.8056 28.1789 39.4935 27.0667 39.7424 26.01L38.769 25.7807C38.4411 27.1731 38.8529 28.6355 39.8545 29.6572L40.5686 28.9571ZM39.7435 26.0054C40.3599 23.2747 41.8 20.8087 43.8719 18.9417L43.2025 18.1988C40.9761 20.205 39.4297 22.854 38.768 25.7852L39.7435 26.0054ZM43.8697 18.9437C45.3913 17.5889 47.1165 16.4844 48.9785 15.6799L48.5819 14.7619C46.6205 15.6093 44.805 16.772 43.2047 18.1968L43.8697 18.9437ZM48.9822 15.6783C58.2378 11.59 68.1187 14.2681 74.1346 15.9084L74.3977 14.9436C68.4221 13.3143 58.2017 10.5128 48.5782 14.7636L48.9822 15.6783ZM74.7662 15.426V15.4203H73.7662V15.426H74.7662ZM74.1158 15.8972C75.6245 16.3727 77.1729 16.7205 78.7381 16.9407L78.8774 15.9505C77.3659 15.7378 75.8714 15.402 74.4165 14.9434L74.1158 15.8972ZM78.7549 16.9428C80.9058 17.1714 83.069 16.648 84.8739 15.4622L84.3249 14.6265C82.7136 15.685 80.7819 16.1526 78.8606 15.9484L78.7549 16.9428ZM84.164 15.2902L96.3864 36.9298L97.2571 36.438L85.0348 14.7985L84.164 15.2902ZM96.4153 36.3926C94.593 38.9355 92.0906 40.8972 89.1935 42.0522L89.5638 42.9811C92.6393 41.7551 95.2949 39.6727 97.2281 36.9751L96.4153 36.3926ZM89.2921 43.0091L89.3259 43.015L89.4989 42.0301L89.4651 42.0242L89.2921 43.0091ZM102.704 40.1177L99.983 35.3045L99.1125 35.7965L101.833 40.6097L102.704 40.1177ZM99.9831 35.3046L87.2121 12.7026L86.3415 13.1946L99.1124 35.7965L99.9831 35.3046ZM87.2122 12.7028L84.4636 7.83278L83.5927 8.3243L86.3414 13.1944L87.2122 12.7028ZM84.2822 8.5092L91.8045 4.07193L91.2964 3.21062L83.7741 7.64788L84.2822 8.5092ZM91.1148 3.88679L109.361 36.2571L110.232 35.7661L91.986 3.39575L91.1148 3.88679ZM109.547 35.5787L102.018 39.9308L102.518 40.7966L110.047 36.4445L109.547 35.5787Z" fill="#FC6F40"/>
</svg>
