<svg width="38" height="42" xmlns="http://www.w3.org/2000/svg"><g fill="#E54725"><path d="M31.5 16.8l-2.961-2.982L14.7 27.657l-5.439-5.418L6.3 25.2l8.4 8.4z"/><path d="M33.6 4.2h-8.778C23.94 1.764 21.63 0 18.9 0c-2.73 0-5.04 1.764-5.922 4.2H4.2c-.294 0-.567.021-.84.084a4.216 4.216 0 0 0-2.121 1.155c-.378.378-.693.84-.903 1.344A4.045 4.045 0 0 0 0 8.4v29.4c0 .567.126 1.134.336 1.638.21.504.525.945.903 1.344a4.216 4.216 0 0 0 2.121 1.155c.273.042.546.063.84.063h29.4c2.31 0 4.2-1.89 4.2-4.2V8.4c0-2.31-1.89-4.2-4.2-4.2zm-14.7-.525c.861 0 1.575.714 1.575 1.575s-.714 1.575-1.575 1.575a1.586 1.586 0 0 1-1.575-1.575c0-.861.714-1.575 1.575-1.575zM33.6 37.8H4.2V8.4h29.4v29.4z"/></g></svg>