<svg width="42" height="41" xmlns="http://www.w3.org/2000/svg"><path d="M41.913 15.123a1.764 1.764 0 0 0-1.424-1.203l-12.377-1.807-5.54-11.21c-.596-1.204-2.568-1.204-3.165 0l-5.54 11.211L1.512 13.92a1.764 1.764 0 0 0-.978 3.012l8.94 8.726L7.37 37.985a1.76 1.76 0 0 0 1.739 2.062c.28 0 .563-.067.826-.205l11.058-5.817 11.077 5.819a1.767 1.767 0 0 0 2.56-1.864l-2.12-12.325 8.955-8.726a1.757 1.757 0 0 0 .447-1.807zm-12.535 8.655c-.415.406-.606.99-.507 1.564l1.67 9.714-8.731-4.588a1.774 1.774 0 0 0-1.644.002l-8.717 4.585 1.658-9.717a1.763 1.763 0 0 0-.507-1.56l-7.048-6.88 9.742-1.426a1.76 1.76 0 0 0 1.328-.962l4.367-8.837 4.367 8.835c.258.52.754.881 1.328.964l9.755 1.427-7.061 6.879z" fill="#E54725"/></svg>